<?xml version="1.0" standalone="no"?><svg xmlns:xlink="http://www.w3.org/1999/xlink" id="wave" style="transform:rotate(0deg); transition: 0.3s" viewBox="0 0 1440 100" version="1.1" xmlns="http://www.w3.org/2000/svg"><defs><linearGradient id="sw-gradient-0" x1="0" x2="0" y1="1" y2="0"><stop stop-color="rgba(246, 246, 246, 1)" offset="0%"/><stop stop-color="rgba(246, 246, 246, 1)" offset="100%"/></linearGradient></defs><path style="transform:translate(0, 0px); opacity:1" fill="url(#sw-gradient-0)" d="M0,60L18.5,56.7C36.9,53,74,47,111,50C147.7,53,185,67,222,65C258.5,63,295,47,332,48.3C369.2,50,406,70,443,73.3C480,77,517,63,554,61.7C590.8,60,628,70,665,75C701.5,80,738,80,775,70C812.3,60,849,40,886,33.3C923.1,27,960,33,997,43.3C1033.8,53,1071,67,1108,71.7C1144.6,77,1182,73,1218,68.3C1255.4,63,1292,57,1329,55C1366.2,53,1403,57,1440,51.7C1476.9,47,1514,33,1551,36.7C1587.7,40,1625,60,1662,56.7C1698.5,53,1735,27,1772,13.3C1809.2,0,1846,0,1883,10C1920,20,1957,40,1994,50C2030.8,60,2068,60,2105,55C2141.5,50,2178,40,2215,40C2252.3,40,2289,50,2326,48.3C2363.1,47,2400,33,2437,26.7C2473.8,20,2511,20,2548,25C2584.6,30,2622,40,2640,45L2658.5,50L2658.5,100L2640,100C2621.5,100,2585,100,2548,100C2510.8,100,2474,100,2437,100C2400,100,2363,100,2326,100C2289.2,100,2252,100,2215,100C2178.5,100,2142,100,2105,100C2067.7,100,2031,100,1994,100C1956.9,100,1920,100,1883,100C1846.2,100,1809,100,1772,100C1735.4,100,1698,100,1662,100C1624.6,100,1588,100,1551,100C1513.8,100,1477,100,1440,100C1403.1,100,1366,100,1329,100C1292.3,100,1255,100,1218,100C1181.5,100,1145,100,1108,100C1070.8,100,1034,100,997,100C960,100,923,100,886,100C849.2,100,812,100,775,100C738.5,100,702,100,665,100C627.7,100,591,100,554,100C516.9,100,480,100,443,100C406.2,100,369,100,332,100C295.4,100,258,100,222,100C184.6,100,148,100,111,100C73.8,100,37,100,18,100L0,100Z"/></svg>
