<?xml version="1.0" standalone="no"?>
<svg xmlns:xlink="http://www.w3.org/1999/xlink" id="wave" style="transform:rotate(0deg); transition: 0.3s" viewBox="0 0 1440 100" version="1.1" xmlns="http://www.w3.org/2000/svg"><defs><linearGradient id="sw-gradient-0" x1="0" x2="0" y1="1" y2="0"><stop stop-color="rgba(246, 246, 246, 1)" offset="0%"/><stop stop-color="rgba(246, 246, 246, 1)" offset="100%"/></linearGradient></defs><path style="transform:translate(0, 0px); opacity:1" fill="url(#sw-gradient-0)" d="M0,50L34.3,55C68.6,60,137,70,206,65C274.3,60,343,40,411,38.3C480,37,549,53,617,65C685.7,77,754,83,823,81.7C891.4,80,960,70,1029,70C1097.1,70,1166,80,1234,81.7C1302.9,83,1371,77,1440,61.7C1508.6,47,1577,23,1646,25C1714.3,27,1783,53,1851,53.3C1920,53,1989,27,2057,15C2125.7,3,2194,7,2263,20C2331.4,33,2400,57,2469,70C2537.1,83,2606,87,2674,86.7C2742.9,87,2811,83,2880,80C2948.6,77,3017,73,3086,60C3154.3,47,3223,23,3291,25C3360,27,3429,53,3497,53.3C3565.7,53,3634,27,3703,26.7C3771.4,27,3840,53,3909,60C3977.1,67,4046,53,4114,50C4182.9,47,4251,53,4320,61.7C4388.6,70,4457,80,4526,76.7C4594.3,73,4663,57,4731,50C4800,43,4869,47,4903,48.3L4937.1,50L4937.1,100L4902.9,100C4868.6,100,4800,100,4731,100C4662.9,100,4594,100,4526,100C4457.1,100,4389,100,4320,100C4251.4,100,4183,100,4114,100C4045.7,100,3977,100,3909,100C3840,100,3771,100,3703,100C3634.3,100,3566,100,3497,100C3428.6,100,3360,100,3291,100C3222.9,100,3154,100,3086,100C3017.1,100,2949,100,2880,100C2811.4,100,2743,100,2674,100C2605.7,100,2537,100,2469,100C2400,100,2331,100,2263,100C2194.3,100,2126,100,2057,100C1988.6,100,1920,100,1851,100C1782.9,100,1714,100,1646,100C1577.1,100,1509,100,1440,100C1371.4,100,1303,100,1234,100C1165.7,100,1097,100,1029,100C960,100,891,100,823,100C754.3,100,686,100,617,100C548.6,100,480,100,411,100C342.9,100,274,100,206,100C137.1,100,69,100,34,100L0,100Z"/></svg>